<svg xmlns="http://www.w3.org/2000/svg" viewBox="0 0 64 64" role="img" aria-label="Game Builder message bubble icon">
  <rect width="64" height="64" rx="14" fill="#f8fbff"/>
  <g stroke="#86a9f0" stroke-width="1">
    <path d="M0 16h64M0 32h64M0 48h64"/>
    <path d="M16 0v64M32 0v64M48 0v64"/>
  </g>
  <g fill="#2f5cc2">
    <path d="M16 15c-4.418 0-8 3.582-8 8v12c0 4.418 3.582 8 8 8h10l7.5 6.5c.692.6 1.75.108 1.75-.808V43H48c4.418 0 8-3.582 8-8V23c0-4.418-3.582-8-8-8H16Z"/>
    <circle cx="22" cy="29" r="3.2"/>
    <circle cx="32" cy="29" r="3.2"/>
    <circle cx="42" cy="29" r="3.2"/>
  </g>
</svg>
