<?xml version="1.0" encoding="utf-8"?>
<!-- Generator: Adobe Illustrator 22.1.0, SVG Export Plug-In . SVG Version: 6.00 Build 0)  -->
<svg version="1.1" id="Layer_1" xmlns="http://www.w3.org/2000/svg" xmlns:xlink="http://www.w3.org/1999/xlink" x="0px" y="0px"
	 viewBox="0 0 295.3 90" style="enable-background:new 0 0 295.3 90;" xml:space="preserve">
<style type="text/css">
	.st0{fill:#FFFFFF;}
	.st1{fill:#0F1C2C;}
	.st2{fill:#00A2DB;}
</style>
<rect class="st0" width="295.3" height="90"/>
<g>
	<path class="st1" d="M197.5,36c-3.2,0-6.4,0-9.6,0c0.1-0.6,0.2-1.1,0.3-1.6c0.5-2.6,0.9-5.2,1.4-7.7c0.1-0.3,0.1-0.6,0.1-0.9
		c0-0.2,0.1-0.4,0.4-0.4c0.3,0,0.6,0,0.8,0c9.8,0,19.6,0,29.3,0c0.3,0,0.6,0,1,0c-0.1,0.6-0.2,1.1-0.3,1.7c-0.5,2.8-1,5.7-1.5,8.5
		c0,0.3-0.2,0.3-0.4,0.3c-2.8,0-5.7,0-8.5,0c-0.4,0-0.5,0.1-0.5,0.4c-0.5,2.8-1,5.5-1.5,8.3c-0.6,3.4-1.2,6.8-1.8,10.2
		c-0.5,2.7-1,5.4-1.4,8.1c-0.1,0.6-0.1,0.6-0.7,0.6c-3.9,0-7.7,0-11.6,0c-0.2,0-0.3,0-0.3-0.3c0.3-1.6,0.6-3.3,0.9-4.9
		c0.4-2.3,0.8-4.6,1.2-6.9c0.3-1.8,0.7-3.7,1-5.5c0.4-2.3,0.8-4.6,1.2-6.9C197.2,38,197.4,37.1,197.5,36z"/>
	<path class="st1" d="M69,52.3c-3.1,0-6.1,0-9.2,0c-0.5,0-0.5,0.1-0.5,0.6c0.1,1.2,0.9,1.9,1.9,2.3c2.6,1,5.2,0.7,7.4-1.2
		c0.2-0.2,0.4-0.2,0.6,0c2.5,1.8,5.1,3.5,7.6,5.2c0.2,0.1,0.2,0.2,0,0.4c-1.9,1.8-4,3.1-6.5,3.9c-2.8,0.8-5.7,1.2-8.6,1
		c-3.2-0.2-6.2-1-8.8-3c-2.5-1.9-4-4.4-4.5-7.4c-0.2-1.4-0.2-2.8-0.1-4.3c0.3-2.7,1.1-5.1,2.5-7.4c2-3.2,4.8-5.5,8.4-6.8
		c2.9-1.1,5.9-1.4,8.9-1.1c2.2,0.2,4.3,0.9,6.2,2.1c2.6,1.7,4.1,4.2,4.8,7.2c0.4,1.6,0.4,3.2,0.2,4.9c-0.1,1.1-0.4,2.1-0.5,3.1
		c-0.1,0.3-0.2,0.4-0.6,0.4c-2.9,0-5.8,0-8.6,0C69.4,52.3,69.2,52.3,69,52.3z M60.1,45.8C60.2,45.8,60.2,45.8,60.1,45.8
		c2.9,0,5.7,0,8.5,0.1c0.2,0,0.3-0.1,0.3-0.3c0.1-1.3-0.6-2.4-1.8-2.9c-2.1-0.8-4.5-0.3-6.1,1.5C60.6,44.6,60.3,45.1,60.1,45.8z"/>
	<path class="st1" d="M278.7,52.3c-3.1,0-6.2,0-9.2,0c-0.3,0-0.4,0.1-0.4,0.4c0,0.9,0.4,1.5,1.1,2c1,0.7,2.3,0.9,3.5,0.9
		c1.8,0,3.4-0.5,4.7-1.7c0.1-0.1,0.3-0.1,0.4,0c2.6,1.8,5.1,3.5,7.7,5.3c0.2,0.2,0.2,0.3,0,0.5c-2.4,2.3-5.2,3.7-8.4,4.3
		c-2.6,0.5-5.2,0.7-7.9,0.4c-2.7-0.3-5.2-1.1-7.4-2.7c-2.6-1.9-4.1-4.3-4.7-7.4c-0.3-1.7-0.3-3.4,0-5c0.3-2.2,0.9-4.2,2-6.1
		c2-3.6,5-6,8.8-7.4c2.5-0.9,5-1.3,7.6-1.2c2.6,0.1,5.2,0.7,7.4,2.2c2.4,1.6,4,3.9,4.7,6.6c0.6,2,0.6,4.1,0.3,6.2
		c-0.1,0.8-0.3,1.7-0.5,2.5c-0.1,0.3-0.2,0.4-0.5,0.4C284.9,52.3,281.8,52.3,278.7,52.3z M269.8,45.7c0,0,0.1,0.1,0.1,0.1
		c0.1,0,0.2,0,0.3,0c2.6,0,5.3,0,7.9,0c0.1,0,0.2,0,0.3,0c0.1,0,0.2-0.1,0.2-0.2c0.1-0.8,0-1.6-0.6-2.2c-0.6-0.7-1.5-1-2.4-1.1
		c-2.1-0.2-3.8,0.6-5.1,2.2C270.2,44.8,270,45.3,269.8,45.7z"/>
	<path class="st1" d="M148.5,52.3c-3.1,0-6.2,0-9.2,0c-0.3,0-0.4,0.1-0.4,0.4c0,0.9,0.4,1.5,1.1,2c0.9,0.6,2,0.9,3.1,0.9
		c1.3,0.1,2.6-0.1,3.8-0.8c0.5-0.3,0.9-0.6,1.4-0.9c0.2-0.1,0.3-0.2,0.5,0c2.5,1.8,5.1,3.5,7.6,5.2c0.2,0.2,0.3,0.3,0.1,0.5
		c-2.1,2.1-4.7,3.4-7.6,4.2c-2.4,0.6-4.9,0.8-7.4,0.7c-3.3-0.2-6.4-1-9-3.1c-2.4-1.9-3.8-4.3-4.3-7.2c-0.3-1.6-0.2-3.3,0-4.9
		c0.4-3.3,1.7-6.2,3.8-8.8c2.1-2.5,4.7-4.2,7.8-5.2c2.2-0.7,4.5-1,6.8-0.9c2.6,0.1,5.1,0.7,7.3,2.1c2.5,1.6,4,3.8,4.7,6.6
		c0.8,2.9,0.6,5.8-0.1,8.7c-0.1,0.3-0.2,0.5-0.6,0.4C154.7,52.3,151.6,52.3,148.5,52.3z M139.6,45.7c0.1,0,0.1,0.1,0.2,0.1
		c2.8,0,5.6,0,8.4,0c0.1,0,0.2-0.1,0.2-0.2c0.1-0.8,0-1.5-0.6-2.1c-0.7-0.8-1.5-1.1-2.5-1.2c-2.2-0.2-3.8,0.6-5.1,2.3
		C140,44.9,139.8,45.3,139.6,45.7z"/>
	<path class="st1" d="M106.6,63.6c-0.1,0-0.2,0-0.3,0c-3.2,0-6.5,0-9.7,0c-0.3,0-0.3-0.1-0.3-0.3c0-0.7,0-1.4,0-2.1
		c0,0-0.1,0.1-0.2,0.1c-1.5,1.7-3.4,2.6-5.7,3c-2.6,0.4-5.1,0.2-7.4-1.3c-1.9-1.2-3-2.9-3.2-5.1c-0.2-2.2,0.1-4.3,1.3-6.2
		c1.2-1.9,3-3.1,5-4c2-0.8,4-1.3,6.2-1.5c1.8-0.2,3.5-0.3,5.3-0.4c0.3,0,0.4-0.1,0.4-0.4c0-0.9-0.4-1.6-1.2-1.9
		c-0.9-0.4-1.9-0.5-2.9-0.4c-2,0.2-3.8,1-5.3,2.3c-0.2,0.2-0.3,0.1-0.5,0c-1.6-1.9-3.2-3.7-4.9-5.6c-0.2-0.2-0.1-0.4,0.1-0.5
		c1.7-1.5,3.6-2.5,5.6-3.4c1.6-0.6,3.2-1.1,4.9-1.3c1.6-0.2,3.3-0.2,4.9,0c1.6,0.2,3.1,0.4,4.6,1c3.1,1.2,5.1,3.4,5.7,6.7
		c0.3,1.4,0.3,2.8,0,4.2c-0.5,3-1,5.9-1.5,8.9c-0.3,1.7-0.6,3.4-0.9,5.1C106.7,61.6,106.7,62.6,106.6,63.6z M96.2,52
		c-0.6,0.1-1.3,0.1-2,0.2c-1,0.2-1.9,0.4-2.8,1c-0.5,0.4-0.8,0.8-0.9,1.4c-0.2,1,0.2,1.8,1.1,2.1c0.7,0.2,1.4,0.3,2.2,0.1
		c2.2-0.4,3.6-2.2,3.9-4.5c0-0.2,0-0.3-0.3-0.3C97,52,96.6,52,96.2,52z"/>
	<path class="st2" d="M6.2,63.6c2.2-12.7,4.5-25.4,6.7-38.1c0.1,0,0.2,0,0.3,0c5.4,0,10.9-0.1,16.3,0c4.1,0.1,8,1.1,11.4,3.6
		c0.3,0.2,0.6,0.5,0.9,0.7c0.2,0.2,0.2,0.3,0,0.5c-2.3,2.3-4.7,4.6-7,6.8C29.3,42.4,23.9,47.7,18.4,53c-3.6,3.5-7.1,6.9-10.7,10.4
		c-0.1,0.1-0.3,0.2-0.5,0.2C6.9,63.7,6.6,63.6,6.2,63.6z"/>
	<path class="st1" d="M110.1,63.6c0.1-0.6,0.2-1.1,0.3-1.7c0.4-2,0.7-4.1,1.1-6.1c0.3-1.6,0.6-3.1,0.8-4.7c0.4-2,0.7-4.1,1.1-6.1
		c0.3-1.5,0.5-3,0.8-4.5c0.4-2.2,0.8-4.4,1.2-6.6c0.4-2.3,0.8-4.6,1.2-6.9c0.1-0.4,0.1-0.7,0.2-1.1c0-0.2,0.1-0.4,0.4-0.4
		c3.9,0,7.8,0,11.7,0c0.1,0,0.2,0,0.3,0c-0.1,0.6-0.2,1.2-0.3,1.8c-0.4,2.3-0.8,4.6-1.2,6.9c-0.4,2.1-0.7,4.2-1.1,6.3
		c-0.4,2.3-0.8,4.6-1.2,6.9c-0.4,2.1-0.7,4.2-1.1,6.3c-0.4,2.3-0.8,4.6-1.2,6.9c-0.1,0.9-0.3,1.7-0.5,2.6c0,0.1-0.2,0.2-0.3,0.2
		c-0.2,0-0.5,0-0.8,0c-3.7,0-7.4,0-11.1,0C110.3,63.7,110.2,63.6,110.1,63.6z"/>
	<path class="st1" d="M233.7,63.6c0.1-0.7,0.2-1.3,0.3-2c0.4-2.3,0.8-4.6,1.2-6.9c0.3-1.8,0.7-3.6,1-5.5c0.4-2,0.7-4,1.1-6
		c0.2-1.2,0.5-2.5,0.7-3.7c0.2-1.2,0.3-2.4,0.5-3.7c0.1-0.5,0-0.5,0.6-0.5c3.6,0,7.2,0,10.8,0c0.1,0,0.2,0,0.4,0
		c-0.2,1.1-0.3,2.3-0.5,3.5c0.3-0.3,0.5-0.6,0.7-0.8c1.1-1.3,2.4-2.4,4.1-2.9c1.5-0.5,3-0.4,4.5-0.2c0.2,0,0.3,0.1,0.2,0.4
		c-0.7,3.1-1.4,6.3-2.1,9.4c0,0.1,0,0.1,0,0.2c0,0.3-0.1,0.3-0.4,0.3c-1.6-0.3-3.3-0.4-4.8,0.2c-2,0.8-3.2,2.4-3.6,4.5
		c-0.6,3-1.1,6-1.6,9c-0.3,1.5-0.5,2.9-0.8,4.4c-0.1,0.3-0.2,0.4-0.5,0.4c-3.7,0-7.5,0-11.2,0C234,63.6,233.9,63.6,233.7,63.6z"/>
	<path class="st1" d="M159.5,63.6c1.6-9.5,3.4-18.8,4.9-28.3c0.1,0,0.2,0,0.4,0c3.6,0,7.2,0,10.8,0c0.4,0,0.4,0,0.4,0.4
		c-0.1,0.9-0.3,1.8-0.4,2.8c0,0.1,0,0.1,0,0.3c0.1-0.1,0.2-0.2,0.3-0.3c0.8-1.1,1.8-2,3-2.7c1.8-1.1,3.7-1.2,5.6-0.9
		c0.7,0.1,0.7,0.1,0.5,0.8c-0.7,3.1-1.4,6.2-2.1,9.4c0,0.1,0,0.1-0.1,0.2c-0.4-0.1-0.8-0.1-1.3-0.2c-1.4-0.1-2.7-0.1-4,0.4
		c-1.9,0.8-3,2.2-3.4,4.1c-0.5,2.5-0.9,5-1.3,7.4c-0.3,1.8-0.7,3.7-1,5.5c0,0.3-0.1,0.5-0.1,0.8c0,0.2-0.1,0.3-0.4,0.3
		c-1.4,0-2.9,0-4.3,0c-2.4,0-4.7,0-7.1,0C159.7,63.6,159.6,63.6,159.5,63.6z"/>
	<path class="st1" d="M234.6,35.3c-0.2,1.2-0.4,2.3-0.6,3.4c-0.4,2.3-0.8,4.6-1.2,6.9c-0.4,2.1-0.7,4.2-1.1,6.3
		c-0.4,2.3-0.8,4.6-1.2,6.9c-0.3,1.5-0.5,3-0.8,4.5c0,0.2-0.1,0.3-0.4,0.3c-3.8,0-7.6,0-11.4,0c-0.1,0-0.2,0-0.4,0
		c0.1-0.7,0.2-1.4,0.4-2.1c0.4-2.3,0.8-4.7,1.2-7c0.3-1.5,0.5-3.1,0.8-4.6c0.4-2.1,0.7-4.1,1.1-6.2c0.3-1.8,0.7-3.7,1-5.5
		c0.2-0.9,0.3-1.8,0.5-2.8c0-0.2,0.1-0.3,0.3-0.3c0.6,0,1.2,0,1.8,0c3.2,0,6.4,0,9.7,0C234.3,35.3,234.4,35.3,234.6,35.3z"/>
	<path class="st1" d="M42.9,30.8c0.5,0.6,1,1.2,1.4,1.8c1.3,1.8,2.1,3.7,2.5,5.9c0.3,1.8,0.3,3.6,0.2,5.5c-0.2,2-0.5,4-1.3,6
		c-2.2,5.8-6.3,9.8-12,12.1c-1.7,0.7-3.4,1.1-5.2,1.4c-0.9,0.2-1.9,0.2-2.8,0.3c-0.1,0-0.2,0-0.4,0C31.1,52.7,37,41.8,42.9,30.8z"/>
	<path class="st1" d="M223,32.3c0.1-0.8,0.3-1.5,0.4-2.2c0.3-1.4,0.5-2.9,0.8-4.3c0-0.3,0.2-0.3,0.4-0.3c1.2,0,2.4,0,3.6,0
		c2.6,0,5.2,0,7.8,0c0.1,0,0.2,0,0.3,0c-0.4,2.3-0.8,4.6-1.2,6.8C231.1,32.3,227,32.3,223,32.3z"/>
	<path class="st1" d="M14.4,63.6c0.5-0.6,1.1-1.3,1.6-1.9c0.8-1,1.7-2,2.5-3c0.1-0.1,0.3-0.2,0.4-0.2c1,0,1.9,0,2.9,0
		c0,0,0.1,0,0.2,0c-0.1,0.1-0.1,0.2-0.2,0.3c-1.1,1.5-2.2,3-3.3,4.5c-0.1,0.1-0.3,0.2-0.4,0.2c-1.2,0-2.3,0-3.5,0
		C14.6,63.7,14.5,63.6,14.4,63.6z"/>
	<path class="st1" d="M21.9,54.9c0.1-0.1,0.1-0.2,0.2-0.3c0.8-0.9,1.6-1.9,2.5-2.8c0.1-0.1,0.2-0.2,0.3-0.2c0.7,0,1.4,0,2.2,0
		c0,0.1-0.1,0.2-0.1,0.2c-0.7,1-1.4,1.9-2.2,2.9c-0.1,0.1-0.2,0.2-0.4,0.2c-0.8,0-1.6,0-2.4,0C22,55,21.9,55,21.9,54.9z"/>
	<path class="st1" d="M26.8,49.2c0.1-0.2,0.2-0.2,0.2-0.3c0.6-0.6,1.2-1.3,1.8-1.9c0.1-0.1,0.3-0.2,0.5-0.2c0.4,0,0.7,0,1.2,0
		c-0.1,0.1-0.1,0.2-0.2,0.3c-0.5,0.6-0.9,1.3-1.4,1.9c-0.1,0.1-0.2,0.2-0.3,0.2C28,49.2,27.4,49.2,26.8,49.2z"/>
	<path class="st1" d="M30.6,44.9c0.5-0.5,0.8-1,1.3-1.4c0.2-0.2,0.5-0.1,0.7-0.2c0,0,0,0.1,0.1,0.1c-0.1,0.2-0.3,0.4-0.4,0.6
		c-0.1,0.1-0.2,0.3-0.3,0.5C31.7,45.1,31.2,44.9,30.6,44.9z"/>
</g>
</svg>
