<svg xmlns="http://www.w3.org/2000/svg" viewBox="0 0 1420 430" fill="none">
  <defs>
    <g id="brand-strokes" stroke-linecap="round" stroke-linejoin="round" fill="none">
      <path d="M70 124C103 101 137 78 171 54" />
      <path d="M134 78C128 114 128 152 132 193" />
      <path d="M177 194C179 162 182 129 186 95" />
      <path d="M188 139C202 120 227 120 235 139C239 152 239 171 238 194" />
      <path d="M263 150C272 138 292 135 301 146C308 154 306 165 294 171C283 176 269 173 261 166C267 184 287 190 304 184" />
      <path d="M354 167C332 108 367 74 417 82C396 82 378 92 369 108C359 125 361 150 376 165C390 178 410 180 429 170" />
      <path d="M445 169C451 151 474 145 485 156C494 165 493 181 479 189C467 196 448 191 447 176C446 167 450 160 458 156" />
      <path d="M487 154C489 168 489 181 490 193" />
      <path d="M510 193C509 168 511 154 517 149C523 157 529 172 534 193" />
      <path d="M534 166C541 152 550 148 558 149C567 151 570 163 570 193" />
      <path d="M571 166C579 151 589 146 598 148C607 151 609 165 610 193" />
      <path d="M628 164C637 151 654 146 666 152C675 158 676 169 665 174C654 179 638 177 630 171C637 186 656 190 672 183" />
      <path d="M728 201C729 162 732 123 736 87" />
      <path d="M740 89C762 82 787 90 790 113C793 128 780 140 756 144" />
      <path d="M739 145C765 140 791 149 794 171C796 190 777 200 746 197" />
      <path d="M817 149C816 163 817 176 821 189C825 201 838 201 847 193C857 185 862 170 864 151" />
      <path d="M865 151C866 165 867 180 870 193" />
      <path d="M891 193C890 171 893 157 897 150" />
      <path d="M897 166C904 155 915 148 928 148" />
      <path d="M946 164C955 151 972 146 984 152C993 158 994 169 983 174C972 179 956 177 948 171C955 186 974 190 989 183" />
      <path d="M1004 170C1010 153 1032 145 1043 156C1052 165 1053 181 1040 189C1028 196 1008 190 1007 175C1006 167 1010 160 1018 156" />
      <path d="M1046 154C1048 168 1048 181 1049 193" />
      <path d="M1070 149C1069 163 1071 176 1075 189C1079 201 1092 201 1101 193C1111 185 1116 170 1119 151" />
      <path d="M1120 151C1121 165 1121 179 1124 193" />
      <path d="M1171 149C1170 186 1169 224 1168 261" />
      <path d="M1172 160C1181 148 1195 146 1207 151C1218 159 1221 176 1214 189C1206 201 1186 204 1172 193" />
      <path d="M1238 193C1237 171 1240 157 1244 150" />
      <path d="M1244 166C1251 155 1262 148 1275 148" />
      <path d="M1286 164C1295 151 1312 146 1324 152C1333 158 1334 169 1323 174C1312 179 1296 177 1288 171C1295 186 1314 190 1329 183" />
      <path d="M1349 153C1360 148 1374 150 1381 159C1387 167 1384 177 1373 180C1361 184 1349 185 1341 190C1338 194 1343 198 1352 200C1362 203 1374 201 1384 194" />
      <path d="M72 364C33 308 42 216 95 180C129 158 176 165 212 190C176 181 136 186 112 222C86 260 90 321 123 351C151 377 193 378 230 359" />
      <path d="M138 301C168 300 196 300 227 302" />
      <path d="M281 334C291 302 327 287 348 302C364 314 363 344 340 357C315 369 283 357 283 331C284 316 292 305 306 299" />
      <path d="M349 301C352 322 352 341 353 360" />
      <path d="M392 360C390 330 392 306 399 291C412 322 425 337 438 360" />
      <path d="M438 320C451 300 467 293 481 295C494 299 499 319 499 360" />
      <path d="M500 321C514 300 531 291 548 296C563 300 568 322 568 360" />
      <path d="M606 322C621 301 652 291 672 302C688 312 688 329 669 338C650 347 624 344 608 334C620 355 648 364 675 353" />
      <path d="M776 362C778 305 782 247 789 188" />
      <path d="M792 190C830 174 878 184 888 220C896 247 877 271 834 281" />
      <path d="M793 283C838 272 887 284 897 320C906 351 875 369 820 363" />
      <path d="M926 296C925 315 927 332 932 348C938 366 958 367 973 355C989 343 997 321 1001 296" />
      <path d="M1003 296C1004 319 1004 340 1008 360" />
      <path d="M1042 295C1045 319 1046 340 1047 360" />
      <path d="M1046 269C1045 268 1046 268 1048 268" />
      <path d="M1084 190C1081 245 1082 301 1087 360" />
      <path d="M1168 171C1164 219 1163 264 1165 309C1165 338 1150 357 1129 360C1108 361 1091 346 1089 323C1087 301 1102 282 1125 279C1141 277 1156 284 1165 299" />
      <path d="M1206 322C1221 301 1252 291 1272 302C1288 312 1288 329 1269 338C1250 347 1224 344 1208 334C1220 355 1248 364 1275 353" />
      <path d="M1312 360C1311 338 1314 316 1318 296" />
      <path d="M1319 320C1327 304 1341 294 1357 294" />
    </g>
  </defs>
  <use href="#brand-strokes" stroke="#2d55ca" stroke-width="11" opacity=".18"/>
  <use href="#brand-strokes" stroke="#2f59d1" stroke-width="7.2"/>
</svg>
