<svg xmlns="http://www.w3.org/2000/svg" viewBox="0 0 360 96" fill="none">
  <g stroke="#214fd6" stroke-linecap="round" stroke-linejoin="round">
    <path d="M19 24.8C34.1 22.9 49 22.6 63.8 22.5H296.2C310.5 22.7 324.7 23.4 341 24.9" stroke-width="4"/>
    <path d="M18.8 73.7C34.4 75.5 49.2 75.7 64.2 75.5H295.8C310.4 75.6 325.5 75.3 340.9 73.7" stroke-width="4"/>
    <path d="M26.1 15.2C24.8 25.4 24.6 35.6 24.6 45.7V60.7C24.7 68.3 25.1 74.2 26.6 81" stroke-width="3.9"/>
    <path d="M334 15.3C335.4 25.5 335.5 35.7 335.3 45.7V60.7C335.1 68.3 334.7 74.4 333.3 81.1" stroke-width="3.9"/>
    <path d="M23.7 29.6C39.6 28.1 53.8 27.8 68.8 27.7H291.2C306.1 27.8 320.5 28.2 336.1 29.7" stroke-width="2.35" opacity=".88"/>
    <path d="M24 68.7C39.5 70.1 54.1 70.2 68.9 70H291.1C305.9 70.2 320.6 70.1 336 68.7" stroke-width="2.35" opacity=".88"/>
    <path d="M32.4 14.8C32.1 24.1 32.2 33.5 32.4 42.8V64.8" stroke-width="2.25" opacity=".84"/>
    <path d="M327.4 14.8C327.8 24.2 327.8 33.6 327.6 42.9V64.8" stroke-width="2.25" opacity=".84"/>
    <path d="M39.2 20.6L48.7 16.4 58 21.9 67 16.6 76.1 21.7 85.2 16.8 94.2 21.6 103.3 17 112.4 21.4 121.5 17.1 130.5 21.3 139.6 17.2 148.7 21.2 157.8 17.3 166.9 21.2 176 17.4 185.1 21.1 194.2 17.4 203.4 21.2 212.6 17.5 221.8 21.3 230.9 17.6 240.1 21.4 249.3 17.7 258.5 21.6 267.8 17.8 277.1 21.8 286.3 18 295.6 22 304.9 18.1 314.4 22.3" stroke-width="2.45"/>
    <path d="M22 35.6L31.3 28.6M22 44.5L31.6 37.3M22 53.3L31.5 46M22.1 62.1L31.3 55" stroke-width="2.25" opacity=".82"/>
    <path d="M328.7 28.3L338 35.5M328.5 37.2L338 44.3M328.4 46L337.9 53.2M328.6 54.9L337.7 62" stroke-width="2.25" opacity=".82"/>
    <path d="M41.7 74.8L49.4 80.6M57.5 74.7L65.2 80.6M73.3 74.5L81.1 80.4M89.2 74.5L97 80.3M105.1 74.4L112.8 80.2M120.9 74.3L128.7 80.1M136.8 74.3L144.6 80.1M152.7 74.2L160.5 80M168.7 74.2L176.4 80M184.6 74.2L192.4 80M200.6 74.2L208.4 80M216.6 74.3L224.4 80.1M232.7 74.4L240.4 80.2M248.7 74.5L256.5 80.3M264.8 74.6L272.5 80.4M280.8 74.7L288.5 80.6M296.9 74.8L304.5 80.7M312.9 74.9L320.4 80.6" stroke-width="2.15" opacity=".8"/>
  </g>
</svg>
