<svg width="130" height="96" fill="none" xmlns="http://www.w3.org/2000/svg"><g clip-path="url(#a)"><path d="M51.604 95.767v-2.691h-.962v-.548h2.574v.548h-.96v2.691h-.654.002ZM53.63 95.767V92.53h.979l.588 2.21.582-2.21h.981v3.238h-.608v-2.55l-.642 2.55h-.63l-.64-2.55v2.55h-.609ZM49.101 91.832s-2.173-4.218-2.005-9.179c.168-4.962 3.671-10.233 4.45-9.9 3.545 1.52 6.808 3.56 8.946 4.79 2.137 1.231 11.074 7.641 21.843 9.435 4.73.79 2.759.647 7.543 1.056 3.927.333 9.268.42 13.492-2.872 1.936-1.51 4.146-4.76 5.339-11.72 0 0-.276-5.185.199-8.617.165-1.19-1.177 0-4.16 4.309-.094.136-.342-1.034-.613-.398-.295.693-.666 1.09-.762 1.109-.166.033-.747-1.222-.895-1.177-.306.095-.53 1.193-.795-.132-.369-1.848-.551-3.086-.596-3.248-.182-.647-.221-.929-.596-.928-1.14.005-3.447 8.238-5.038 8.153-11.201-.596-12.937-4.81-17.102-11.334-.662-1.04-4.143-3.149-7.689.398-.463.463 1.282-3.734 3.911-5.767 6.6-5.102 12.925-6.165 15.378-6.363 1.012-.082 8.174 2.793 10.473 3.712.33.132.154 8.623.927 8.352.713-.251 4.481-5.891 5.635-7.49.514-.713.696.596.828.447.186-.21.955-1.575 1.226-1.575.182 0 .538 1.506.663 1.325.613-.877.686-1.03.795-1.193.232-.347-.266 5.32.066 4.873 2.955-3.988 5.303-6.686 7.414-9.758 0 0 8.521-3.997 7.853-10.563 0 0 2.385-3.229 3.421-5.866 0 0-6.1-5.406-12.776-10.052 0 0 .213-.874.467-2.018 0 0-4.587-4.562-15.67-10.47 0 0-14.089-8.175-32.558-8.316.004-.001-44.81-3.67-54.964 36.771 0 0-9.122 40.732 35.35 54.206Z" fill="#192957"/><path d="m115.991 48.562-4.983 7.525.31-5.196-1.472 2.107-.694-1.93-1.346 2.24-.689-2.058-5.259 8.577-.098-7.704-10.246-3.735s16.436 2.865 24.478.174h-.001ZM107.097 72.501l.736-6.451-3.087 4.715-.348-.901-1.056 1.106-.97-1.306-.949 1.746-1.049-6.261-2.815 7.774s-1.364.915-3.485 1.209c-2.155.297-5.067-.024-5.067-.024l-11.812-.266S96.67 78.83 107.1 72.5l-.002.001Z" fill="#fff"/><path d="M69.175 63.084s1.248 1.432 5.402 2.864c0 0-3.12-2.891.602-3.97 0 0 1.584-.562 2.333.79 0 0 .714 6.77 9.426 9.434 0 0-17.41 3.162-17.763-9.118ZM44.298 86.568s-6.495-8.582 4.905-15.343l-7.464-3.344s-4.338-2.724-6.562 2.002c0 0-2.614 5.434 1.167 9.828 0 0 4.64 5.17 7.954 6.857Z" fill="#fff"/><path d="M38.188 7.264s-.53-4.243 5.038-2.386l.662.53s-4.64 1.989-5.7 1.856Z" fill="#192957"/><path d="M124.72 37.123c-.536 6.936-6.468 9.113-6.468 9.113 4.66-4.1 4.429-10.435 4.429-10.435l3.028-3.412-8.311-.608 4.809 4.105c-1.061 6.496-6.054 10.96-6.054 10.96-1.061.751-2.341.884-2.341.884-4.419 1.325-16.44.09-16.44.09-3.8-.531-6.23-.133-6.23-.133-21.652 3.004-23.674 16.268-23.674 16.268-.56 7.739 8.074 10.29 8.074 10.29 18.294 6.275 32.047-.395 32.047-.395-1.536 7.957-6.417 11.31-6.417 11.31-4.64 2.74-10.606 1.592-10.606 1.592-4.155-.31-11.313-2.829-11.313-2.829-7.69-2.34-20.725-10.959-20.725-10.959-6.938-4.596-17.095-7.376-17.095-7.376-10.998-5.344-3.602-17.843-3.602-17.843-22.421 21.29 1.183 37.87 1.183 37.87C11.281 71.524 15.775 40.77 15.775 40.77c4.44-23.267 22.78-31.441 22.78-31.441 1.59 4.109 9.28 13.83 9.28 13.83.53.663 1.017.177 1.017.177-.442-1.016-3.005-4.95-3.005-4.95-4.818-6.099-6.496-11.003-6.496-11.003-.575-2.034 1.237-1.678 1.237-1.678.707.044 8.617 1.105 8.617 1.105 1.281.132 13.125.53 13.125.53-.53-.09-14.053-1.988-14.053-1.988C56.231 2.834 65.642 2.79 65.642 2.79 83.936 2.746 97.95 9.17 97.95 9.17c2.61 1.076 17.806 10.606 17.806 10.606-.353.105-.78 2.379-.78 2.379.502.274 12.945 10 12.945 10-.295.864-3.201 4.97-3.201 4.97l.001-.002Zm-10.151 1.344s-39.918-7.441-68.345 9.832c0 0 32.67-15.417 66.059-7.331 0 0 1.46-1.605 2.284-2.501h.002Zm-5.29 3.905s-26.537-5.078-47.904 6.43c0 0 24.767-10.167 45.944-4.907l1.96-1.522Zm-50.91-29.995S46.051 8.719 44.764 8.633c-.805-.057-.292 4.624 6.498 13.265 6.788 8.639-4.011-13.438 7.105-9.521Zm-35.714 42.71s.296-1.184-.583-2.24c-.879-1.062-1.146-1.13-1.715-.57-.567.557-.693 2.2-.587 2.927.103.725.78 1.454 1.551 1.786.775.334 1.673-.979 1.334-1.903Zm6.156-9.745s.273-1.086-.496-2.045c-.77-.96-1.005-1.02-1.512-.506-.509.515-.631 2.02-.544 2.683.086.661.678 1.321 1.358 1.62.681.298 1.487-.91 1.194-1.751v-.001Zm-3.626-7.257s.762-.952.408-2.279c-.358-1.328-.573-1.503-1.323-1.234-.75.27-1.549 1.714-1.758 2.416-.207.703.103 1.647.668 2.271.564.627 1.93-.191 2.005-1.172v-.002Zm-3.132 8.044s.244-.982-.621-1.892c-.867-.913-1.123-.975-1.646-.528-.522.449-.59 1.819-.471 2.428.121.61.785 1.237 1.531 1.539.744.303 1.557-.766 1.207-1.547Zm5.167 6.384s.39-.625-.078-1.491c-.466-.867-.648-.979-1.134-.802-.488.176-.824 1.123-.859 1.582-.034.46.338 1.076.838 1.482.5.408 1.337-.13 1.233-.771Zm57.908-36.894-2.282 5.972 20.495 3.876-7.507-4.074-4.439.465.943-2.313-7.21-3.928v.002Z" fill="#fff"/><path d="M6.015 48.636C5.51 29.885 18.042 13.057 37.372 3.096 14.685 12.122-.513 29.446.014 48.927.555 69.07 17.758 86.004 42.169 93.442 21.025 84.785 6.539 68.131 6.015 48.636Z" fill="#C41F3E"/></g><defs><clipPath id="a"><path fill="#fff" transform="translate(0 .767)" d="M0 0h129.256v95H0z"/></clipPath></defs></svg>